<?xml version="1.0" encoding="utf-8"?>
<!-- Generator: Adobe Illustrator 16.0.4, SVG Export Plug-In . SVG Version: 6.00 Build 0)  -->
<!DOCTYPE svg PUBLIC "-//W3C//DTD SVG 1.1//EN" "http://www.w3.org/Graphics/SVG/1.1/DTD/svg11.dtd">
<svg version="1.1" id="Layer_1" xmlns="http://www.w3.org/2000/svg" xmlns:xlink="http://www.w3.org/1999/xlink" x="0px" y="0px"
	 width="157px" height="156px" viewBox="0 0 157 156" enable-background="new 0 0 157 156" xml:space="preserve">
<path fill="#D55027" fill-opacity="0.2" d="M140.033,36.725l0.271-0.638h-0.701C126.398,16.749,104.183,4.051,79,4.051
	c-40.501,0-73.333,32.833-73.333,73.333c0,22.741,10.353,43.063,26.6,56.514c6.319,5.23,13.529,9.422,21.37,12.312
	c7.904,2.914,16.447,4.506,25.363,4.506c40.501,0,73.333-32.832,73.333-73.333C152.333,62.343,147.801,48.361,140.033,36.725
	 M79,11.451c20.775,0,39.296,9.618,51.381,24.635H60.129c-5.302,0-10.354,0.818-15.155,2.451c-4.803,1.636-9.19,3.8-13.16,6.494
	c-3.972,2.696-7.416,5.765-10.336,9.21c-2.92,3.446-5.15,6.98-6.687,10.602c-0.336,0.792-0.642,1.564-0.934,2.327
	C18.768,35.607,46.061,11.451,79,11.451 M14.327,90.229c2.879,3.214,7.543,4.829,14.01,4.829c2.65,0,5.344-0.465,8.078-1.391
	c2.734-0.93,5.351-2.254,7.85-3.977c2.498-1.723,4.761-3.777,6.791-6.163c2.027-2.385,3.661-5.035,4.898-7.951
	c1.575-3.711,1.625-6.845,0.151-9.409c-1.475-2.561-4.067-3.843-7.777-3.843c-3.711,0-7.391,1.282-11.041,3.843
	c-3.651,2.564-6.262,5.698-7.837,9.409c-1.575,3.712-1.627,6.849-0.151,9.409c1.474,2.562,4.068,3.844,7.778,3.844
	c0.442,0,0.625,0.088,0.551,0.264c-0.112,0.267-0.967,0.664-2.561,1.193c-1.595,0.53-3.276,0.795-5.043,0.795
	c-2.915,0-5.235-0.574-6.954-1.722c-1.722-1.147-2.912-2.717-3.569-4.705c-0.659-1.987-0.832-4.284-0.521-6.891
	c0.311-2.605,1.067-5.322,2.267-8.151c1.5-3.532,3.668-7.133,6.506-10.8c2.836-3.665,6.219-7.001,10.144-10.005
	c3.925-3.003,8.291-5.434,13.099-7.289s9.994-2.783,15.561-2.783h15.637l-46.396,88.432
	C24.957,117.754,17.218,104.866,14.327,90.229 M79,143.318c-7.674,0-15.036-1.325-21.886-3.736l52.91-100.846h4.639
	c2.12,0,3.896,1.282,5.326,3.843c1.43,2.564,2.462,5.698,3.096,9.409c0.633,3.711,0.837,7.6,0.616,11.662
	c-0.225,4.065-0.973,7.599-2.247,10.602h2.65l12.375-29.158c5.375,9.546,8.455,20.556,8.455,32.29
	C144.934,113.799,115.414,143.318,79,143.318"/>
</svg>
